<svg width="37" height="38" viewBox="0 0 37 38" fill="none" xmlns="http://www.w3.org/2000/svg">
<g clip-path="url(#clip0_39_948)">
<path d="M21.8824 17.7518C21.8824 19.6266 21.2941 22.1263 18.4706 23.1262C19.2941 21.0014 19.4118 18.8767 18.8235 16.8769C18 14.2522 15.2941 12.2524 13.4118 11.1275C12.9412 10.7526 12.1176 11.2525 12.2353 12.0024C12.2353 13.3773 11.8824 15.377 9.88235 17.5018C7.29412 20.2515 6 23.1262 6 25.8759C6 29.5005 8.35294 34 13.0588 34C8.35294 29.0005 11.8824 24.626 11.8824 24.626C12.8235 32.0002 17.7647 34 20.1176 34C22.1176 34 26 32.5002 26 26.0009C26 22.1263 24.4706 19.1266 23.1765 17.3768C22.8235 16.7519 22 17.1269 21.8824 17.7518Z" fill="url(#paint0_linear_39_948)"/>
</g>
<defs>
<linearGradient id="paint0_linear_39_948" x1="16" y1="11" x2="16" y2="34" gradientUnits="userSpaceOnUse">
<stop stop-color="#C10003"/>
<stop offset="1" stop-color="#5B0002"/>
</linearGradient>
<clipPath id="clip0_39_948">
<rect width="37" height="38" fill="white"/>
</clipPath>
</defs>
</svg>
