<svg width="176" height="176" viewBox="0 0 176 176" fill="none" xmlns="http://www.w3.org/2000/svg">
<path d="M88 117.333V58.6667M154 99V77M22 99V77M51.3333 22H29.3333C27.3884 22 25.5232 22.7726 24.1479 24.1479C22.7726 25.5232 22 27.3884 22 29.3333V51.3333M124.667 22H146.667C148.612 22 150.477 22.7726 151.852 24.1479C153.227 25.5232 154 27.3884 154 29.3333V51.3333M124.667 154H146.667C148.612 154 150.477 153.227 151.852 151.852C153.227 150.477 154 148.612 154 146.667V124.667M51.3333 154H29.3333C27.3884 154 25.5232 153.227 24.1479 151.852C22.7726 150.477 22 148.612 22 146.667V124.667M99 22H77M117.333 88H58.6667M99 154H77" stroke="white" stroke-width="2" stroke-linecap="round" stroke-linejoin="round"/>
</svg>
