<svg width="23" height="22" viewBox="0 0 23 22" fill="none" xmlns="http://www.w3.org/2000/svg">
<path d="M3.45 22C2.8175 22 2.27623 21.7848 1.8262 21.3543C1.37617 20.9238 1.15077 20.4057 1.15 19.8V7.3975C0.805 7.19583 0.527083 6.93477 0.31625 6.6143C0.105417 6.29383 0 5.9224 0 5.5V2.2C0 1.595 0.2254 1.07727 0.6762 0.6468C1.127 0.216333 1.66827 0.000733333 2.3 0H20.7C21.3325 0 21.8741 0.2156 22.3249 0.6468C22.7757 1.078 23.0008 1.59573 23 2.2V5.5C23 5.92167 22.8946 6.2931 22.6837 6.6143C22.4729 6.9355 22.195 7.1962 21.85 7.3964V19.8C21.85 20.405 21.625 20.9231 21.1749 21.3543C20.7249 21.7855 20.1833 22.0007 19.55 22H3.45ZM2.3 5.5H20.7V2.2H2.3V5.5ZM8.05 13.2H14.95V11H8.05V13.2Z" fill="white"/>
</svg>
