<svg width="21" height="20" viewBox="0 0 21 20" fill="none" xmlns="http://www.w3.org/2000/svg">
<path fill-rule="evenodd" clip-rule="evenodd" d="M5.83333 4.44444C5.83333 3.2657 6.325 2.13524 7.20017 1.30175C8.07534 0.468252 9.26232 0 10.5 0C11.7377 0 12.9247 0.468252 13.7998 1.30175C14.675 2.13524 15.1667 3.2657 15.1667 4.44444C15.1667 5.62318 14.675 6.75365 13.7998 7.58714C12.9247 8.42064 11.7377 8.88889 10.5 8.88889C9.26232 8.88889 8.07534 8.42064 7.20017 7.58714C6.325 6.75365 5.83333 5.62318 5.83333 4.44444ZM5.83333 11.1111C4.28624 11.1111 2.80251 11.6964 1.70854 12.7383C0.614582 13.7802 0 15.1932 0 16.6667C0 17.5507 0.368749 18.3986 1.02513 19.0237C1.6815 19.6488 2.57174 20 3.5 20H17.5C18.4283 20 19.3185 19.6488 19.9749 19.0237C20.6313 18.3986 21 17.5507 21 16.6667C21 15.1932 20.3854 13.7802 19.2915 12.7383C18.1975 11.6964 16.7138 11.1111 15.1667 11.1111H5.83333Z" fill="white"/>
</svg>
