<svg width="24" height="24" viewBox="0 0 24 24" fill="none" xmlns="http://www.w3.org/2000/svg">
<path d="M15.5838 0H6.41651C5.19873 0 4.59034 2.97981e-08 4.10039 0.298958C3.61146 0.596915 3.33915 1.13484 2.79454 2.21069L1.3743 5.75918C1.04531 6.57907 0.758832 7.54493 1.31154 8.23783C1.57203 8.56441 1.9291 8.80267 2.33307 8.91947C2.73704 9.03627 3.16782 9.0258 3.56549 8.88951C3.96315 8.75323 4.30792 8.49792 4.55184 8.15909C4.79576 7.82026 4.92669 7.41476 4.92642 6.99901C4.92642 7.52936 5.13972 8.038 5.51941 8.41302C5.89909 8.78804 6.41405 8.99872 6.951 8.99872C7.48795 8.99872 8.00291 8.78804 8.38259 8.41302C8.76227 8.038 8.97557 7.52936 8.97557 6.99901C8.97557 7.52936 9.18888 8.038 9.56856 8.41302C9.94824 8.78804 10.4632 8.99872 11.0001 8.99872C11.5371 8.99872 12.0521 8.78804 12.4317 8.41302C12.8114 8.038 13.0247 7.52936 13.0247 6.99901C13.0247 7.52936 13.238 8.038 13.6177 8.41302C13.9974 8.78804 14.5124 8.99872 15.0493 8.99872C15.5863 8.99872 16.1012 8.78804 16.4809 8.41302C16.8606 8.038 17.0739 7.52936 17.0739 6.99901C17.0738 7.41467 17.2049 7.82003 17.4489 8.1587C17.6929 8.49737 18.0377 8.75253 18.4353 8.88868C18.8329 9.02483 19.2636 9.03522 19.6675 8.91839C20.0713 8.80157 20.4283 8.56334 20.6888 8.23683C21.2415 7.54393 20.954 6.57807 20.626 5.75818L19.2047 2.21069C18.6601 1.13484 18.3888 0.596915 17.8989 0.298958C17.41 2.97981e-08 16.8006 0 15.5838 0Z" fill="black"/>
<path fill-rule="evenodd" clip-rule="evenodd" d="M19.186 19.3451H21.2326C21.4361 19.3451 21.6313 19.4323 21.7752 19.5875C21.9191 19.7427 22 19.9531 22 20.1726C22 20.392 21.9191 20.6025 21.7752 20.7577C21.6313 20.9128 21.4361 21 21.2326 21H0.767442C0.563904 21 0.368702 20.9128 0.224779 20.7577C0.0808553 20.6025 0 20.392 0 20.1726C0 19.9531 0.0808553 19.7427 0.224779 19.5875C0.368702 19.4323 0.563904 19.3451 0.767442 19.3451H2.81395V9.69173C3.57526 9.69173 4.28028 9.43578 4.86047 9C5.46108 9.45056 6.17528 9.69197 6.90698 9.69173C7.66828 9.69173 8.3733 9.43578 8.95349 9C9.5541 9.45056 10.2683 9.69197 11 9.69173C11.7613 9.69173 12.4663 9.43578 13.0465 9C13.6471 9.45056 14.3613 9.69197 15.093 9.69173C15.8543 9.69173 16.5593 9.43578 17.1395 9C17.7402 9.45056 18.4544 9.69197 19.186 9.69173V19.3451ZM8.44186 19.3451H13.5581V16.3112C13.5581 15.2797 13.5581 14.7645 13.3525 14.3805C13.2179 14.1286 13.0241 13.9193 12.7907 13.7737C12.4346 13.5531 11.9567 13.5531 11 13.5531C10.0433 13.5531 9.5654 13.5531 9.2093 13.7737C8.97586 13.9193 8.7821 14.1286 8.64754 14.3805C8.44186 14.7645 8.44186 15.2797 8.44186 16.3112V19.3451Z" fill="black"/>
</svg>
