<svg width="24" height="24" viewBox="0 0 24 24" fill="none" xmlns="http://www.w3.org/2000/svg">
<path d="M3.63428 5.7575C6.61878 4.2075 10.4163 2.7775 13.9593 1.906C14.9958 1.651 16.0668 2.0345 16.6058 2.9555C16.9908 3.6135 17.4608 4.5155 17.9578 5.6945M14.5318 15.5615C14.5793 16.6265 15.4003 17.42 16.4648 17.4625C17.0073 17.4845 17.6818 17.5 18.4998 17.5C19.3178 17.5 19.9923 17.4845 20.5348 17.4625C21.5998 17.42 22.4203 16.6265 22.4678 15.5615C22.4868 15.128 22.4998 14.6095 22.4998 14C22.4998 13.3905 22.4868 12.872 22.4678 12.4385C22.4203 11.3735 21.5993 10.58 20.5348 10.5375C19.8568 10.5115 19.1783 10.499 18.4998 10.5C17.6818 10.5 17.0073 10.5155 16.4648 10.5375C15.3998 10.58 14.5793 11.3735 14.5318 12.4385C14.5097 12.9587 14.499 13.4793 14.4998 14C14.4998 14.61 14.5128 15.128 14.5318 15.5615Z" stroke="white" stroke-width="1.5" stroke-linecap="round" stroke-linejoin="round"/>
<path d="M20.437 10.5335C20.4058 9.69723 20.357 8.86171 20.2905 8.0275C20.1865 6.752 19.196 5.7925 17.9195 5.704C16.4495 5.602 14.1815 5.5 11 5.5C7.8185 5.5 5.55 5.602 4.08 5.704C2.804 5.792 1.8135 6.752 1.7095 8.0275C1.602 9.3445 1.5 11.3065 1.5 14C1.5 16.6935 1.602 18.655 1.7095 19.9725C1.8135 21.248 2.804 22.2075 4.0805 22.296C5.55 22.398 7.8185 22.5 11 22.5C14.1815 22.5 16.45 22.398 17.9195 22.296C19.196 22.208 20.1865 21.248 20.2905 19.9725C20.345 19.306 20.398 18.4745 20.437 17.4665M18 13.5V14.5" stroke="white" stroke-width="1.5" stroke-linecap="round" stroke-linejoin="round"/>
</svg>
